<svg xmlns="http://www.w3.org/2000/svg" viewBox="0 0 64 64" width="64" height="64">
  <!-- Oceano -->
  <circle cx="32" cy="32" r="30" fill="#4a90d9"/>

  <!-- Continentes -->
  <!-- América do Norte / Sul -->
  <path d="M18 14 C16 16 14 20 15 25 C16 30 19 32 20 36 C21 40 19 44 20 48 C22 50 25 50 27 48 C28 44 26 40 27 36 C28 32 31 30 32 26 C33 22 31 18 29 15 Z" fill="#1f5132"/>
  <!-- Europa / África -->
  <path d="M34 12 C32 14 33 18 35 20 C37 22 38 20 40 22 C42 24 41 28 40 32 C39 36 37 40 38 44 C39 48 41 50 40 52 C38 54 36 52 35 50 C34 46 35 42 34 38 C33 34 31 30 32 26 C33 22 35 18 34 12 Z" fill="#2d6b42"/>
  <!-- Ásia / Oceania -->
  <path d="M40 18 C42 16 46 16 48 18 C50 20 50 24 49 28 C48 32 46 34 48 36 C50 38 52 36 53 34 C54 32 53 28 52 24 C51 20 49 16 46 14 C44 13 41 15 40 18 Z" fill="#1f5132"/>
  <path d="M46 40 C44 42 45 46 47 47 C49 48 51 46 50 44 C49 42 47 40 46 40 Z" fill="#2d6b42"/>

  <!-- Brilho sutil -->
  <circle cx="22" cy="20" r="6" fill="white" opacity="0.08"/>

  <!-- Borda -->
  <circle cx="32" cy="32" r="30" fill="none" stroke="#163d25" stroke-width="1.5"/>
</svg>
